<svg xmlns="http://www.w3.org/2000/svg" viewBox="0 0 160 160" role="img" aria-label="FORGE IDE preview">
  <rect width="160" height="160" rx="12" fill="#111418"/>
  <rect x="18" y="28" width="124" height="104" rx="8" fill="#161b22" stroke="rgba(255,255,255,0.08)"/>
  <rect x="18" y="28" width="124" height="16" rx="8" fill="#2e8b57" opacity="0.35"/>
  <rect x="26" y="52" width="18" height="72" rx="3" fill="#0d1117" stroke="rgba(255,255,255,0.06)"/>
  <rect x="30" y="60" width="10" height="3" rx="1" fill="#3fa46a" opacity="0.7"/>
  <rect x="30" y="68" width="10" height="3" rx="1" fill="rgba(255,255,255,0.12)"/>
  <rect x="30" y="76" width="10" height="3" rx="1" fill="rgba(255,255,255,0.1)"/>
  <rect x="50" y="52" width="58" height="72" rx="3" fill="#0d1117" stroke="rgba(255,255,255,0.06)"/>
  <rect x="58" y="62" width="42" height="4" rx="2" fill="rgba(255,255,255,0.14)"/>
  <rect x="58" y="72" width="36" height="3" rx="1.5" fill="rgba(255,255,255,0.08)"/>
  <rect x="58" y="80" width="40" height="3" rx="1.5" fill="rgba(255,255,255,0.08)"/>
  <rect x="54" y="100" width="50" height="14" rx="4" fill="#2e8b57" opacity="0.25" stroke="rgba(110,231,183,0.35)"/>
  <rect x="58" y="105" width="28" height="4" rx="2" fill="#6ee7b7" opacity="0.75"/>
  <rect x="114" y="52" width="20" height="72" rx="3" fill="#0d1117" stroke="rgba(255,255,255,0.06)"/>
  <circle cx="124" cy="64" r="4" fill="#3fa46a" opacity="0.55"/>
  <circle cx="124" cy="78" r="4" fill="#6ee7b7" opacity="0.4"/>
  <circle cx="124" cy="92" r="4" fill="rgba(167,139,250,0.45)"/>
  <text
    x="26"
    y="39"
    text-anchor="start"
    fill="#6ee7b7"
    font-size="11"
    font-weight="700"
    font-family="system-ui, sans-serif"
  >FORGE</text>
</svg>
