<svg xmlns="http://www.w3.org/2000/svg" viewBox="0 0 160 160" role="img" aria-label="ResumeAI preview">
  <rect width="160" height="160" rx="12" fill="#111418"/>
  <rect x="22" y="30" width="68" height="94" rx="8" fill="#161b22" stroke="rgba(255,255,255,0.08)"/>
  <rect x="22" y="30" width="68" height="17" rx="8" fill="#2e8b57" opacity="0.38"/>
  <rect x="32" y="56" width="34" height="5" rx="2" fill="#3fa46a" opacity="0.85"/>
  <rect x="32" y="68" width="46" height="4" rx="2" fill="rgba(255,255,255,0.1)"/>
  <rect x="32" y="78" width="40" height="4" rx="2" fill="rgba(255,255,255,0.08)"/>
  <rect x="32" y="88" width="44" height="4" rx="2" fill="rgba(255,255,255,0.08)"/>
  <rect x="32" y="98" width="36" height="4" rx="2" fill="rgba(255,255,255,0.06)"/>
  <path
    d="M32 110.5l5 5 11-11"
    fill="none"
    stroke="#6ee7b7"
    stroke-width="2.5"
    stroke-linecap="round"
    stroke-linejoin="round"
  />
  <rect x="40" y="108" width="28" height="4" rx="2" fill="rgba(255,255,255,0.06)"/>
  <circle cx="114" cy="50" r="30" fill="#161b22" stroke="rgba(255,255,255,0.06)" stroke-width="2"/>
  <circle
    cx="114"
    cy="50"
    r="30"
    fill="none"
    stroke="#3fa46a"
    stroke-width="5"
    stroke-linecap="round"
    stroke-dasharray="141 188"
    transform="rotate(-90 114 50)"
  />
  <path
    d="M104 50l7 7 14-14"
    fill="none"
    stroke="#6ee7b7"
    stroke-width="3"
    stroke-linecap="round"
    stroke-linejoin="round"
  />
  <rect x="96" y="96" width="46" height="30" rx="8" fill="#161b22" stroke="#6d28d9" stroke-width="1.5" opacity="0.95"/>
  <circle cx="108" cy="111" r="2.5" fill="#a78bfa"/>
  <circle cx="119" cy="111" r="2.5" fill="#a78bfa"/>
  <circle cx="130" cy="111" r="2.5" fill="#a78bfa"/>
  <path
    d="M114 28l2.5 5 5.5.8-4 3.9.9 5.5-4.9-2.9-4.9 2.9.9-5.5-4-3.9 5.5-.8L114 28z"
    fill="#6d28d9"
    opacity="0.9"
  />
</svg>
