<svg xmlns="http://www.w3.org/2000/svg" viewBox="0 0 160 160" role="img" aria-label="Spotify stats preview">
  <rect width="160" height="160" rx="12" fill="#111418"/>
  <circle cx="80" cy="80" r="40" fill="#1DB954"/>
  <g fill="#000" transform="translate(40 40) scale(1.25)">
    <path d="M46.8 29.4c-6.9-4.1-18.2-4.5-24.7-2.4-1.1.3-2.2-.5-2.5-1.6-.3-1.1.5-2.2 1.6-2.5 7.5-2.3 20.1-1.9 28.4 2.8 1 .6 1.3 1.9.7 2.9-.6 1-1.9 1.3-2.9.7z"/>
    <path d="M47.7 36.8c-5.4-3.3-13.7-4.3-20.3-2.3-.8.2-1.7-.2-1.9-1-.2-.8.2-1.7 1-1.9 7.5-2.3 17.4-1.2 23.8 3.1.8.5 1 1.6.5 2.4-.5.8-1.6 1-2.4.5z"/>
    <path d="M48.2 43.9c-3.8-2.3-9.7-3-14.4-1.6-.6.2-1.2-.3-1.4-.9-.2-.6.3-1.2.9-1.4 5.4-1.6 12.4-.9 17.2 2.2.6.4.8 1.2.5 1.8-.4.6-1.2.8-1.8.5z"/>
  </g>
</svg>
